<mxfile host="app.diagrams.net" modified="2022-04-07T04:40:40.807Z" agent="5.0 (Windows NT 10.0; WOW64) AppleWebKit/537.36 (KHTML, like Gecko) Chrome/97.0.4692.71 Safari/537.36" etag="n1D6RmpMjb_nSCkSiW_a" version="17.4.0" type="github">
  <diagram id="vrn0HeVkJkGQ8uHqAP4W" name="Page-1">
    <mxGraphModel dx="1050" dy="-919" grid="0" gridSize="10" guides="1" tooltips="1" connect="1" arrows="1" fold="1" page="1" pageScale="1" pageWidth="827" pageHeight="1169" math="0" shadow="0">
      <root>
        <mxCell id="0" />
        <mxCell id="1" parent="0" />
        <mxCell id="xuFwdp0xskdRImY5IUV7-2" value="BaseLayer" style="rounded=1;whiteSpace=wrap;html=1;" parent="1" vertex="1">
          <mxGeometry x="50" y="250" width="80" height="40" as="geometry" />
        </mxCell>
        <mxCell id="xuFwdp0xskdRImY5IUV7-3" value="OverLayer" style="rounded=1;whiteSpace=wrap;html=1;" parent="1" vertex="1">
          <mxGeometry x="50" y="300" width="80" height="40" as="geometry" />
        </mxCell>
        <mxCell id="xuFwdp0xskdRImY5IUV7-4" value="BasePose" style="rounded=1;whiteSpace=wrap;html=1;" parent="1" vertex="1">
          <mxGeometry x="50" y="350" width="80" height="40" as="geometry" />
        </mxCell>
        <mxCell id="xuFwdp0xskdRImY5IUV7-5" value="BaseLayer" style="rounded=1;whiteSpace=wrap;html=1;" parent="1" vertex="1">
          <mxGeometry x="190" y="250" width="80" height="40" as="geometry" />
        </mxCell>
        <mxCell id="xuFwdp0xskdRImY5IUV7-6" value="BasePose" style="rounded=1;whiteSpace=wrap;html=1;" parent="1" vertex="1">
          <mxGeometry x="300" y="250" width="80" height="40" as="geometry" />
        </mxCell>
        <mxCell id="xuFwdp0xskdRImY5IUV7-7" value="" style="endArrow=none;html=1;rounded=0;" parent="1" edge="1">
          <mxGeometry width="50" height="50" relative="1" as="geometry">
            <mxPoint x="280" y="270" as="sourcePoint" />
            <mxPoint x="290" y="270" as="targetPoint" />
          </mxGeometry>
        </mxCell>
        <mxCell id="xuFwdp0xskdRImY5IUV7-11" value="AdditivePose" style="shape=hexagon;perimeter=hexagonPerimeter2;whiteSpace=wrap;html=1;fixedSize=1;" parent="1" vertex="1">
          <mxGeometry x="420" y="250" width="106" height="40" as="geometry" />
        </mxCell>
        <mxCell id="xuFwdp0xskdRImY5IUV7-12" value="BaseLayer" style="rounded=1;whiteSpace=wrap;html=1;" parent="1" vertex="1">
          <mxGeometry x="170" y="320" width="80" height="40" as="geometry" />
        </mxCell>
        <mxCell id="xuFwdp0xskdRImY5IUV7-13" value="&lt;font style=&quot;font-size: 4px&quot;&gt;OverLayer&lt;/font&gt;" style="rounded=1;whiteSpace=wrap;html=1;fontSize=5;" parent="1" vertex="1">
          <mxGeometry x="325" y="320" width="80" height="40" as="geometry" />
        </mxCell>
        <mxCell id="xuFwdp0xskdRImY5IUV7-14" value="AdditivePose" style="shape=hexagon;perimeter=hexagonPerimeter2;whiteSpace=wrap;html=1;fixedSize=1;" parent="1" vertex="1">
          <mxGeometry x="465" y="320" width="96" height="40" as="geometry" />
        </mxCell>
        <mxCell id="xuFwdp0xskdRImY5IUV7-15" value="" style="shape=umlDestroy;whiteSpace=wrap;html=1;strokeWidth=3;rotation=45;" parent="1" vertex="1">
          <mxGeometry x="411" y="332.5" width="15" height="15" as="geometry" />
        </mxCell>
        <mxCell id="xuFwdp0xskdRImY5IUV7-16" value="" style="shape=umlDestroy;whiteSpace=wrap;html=1;strokeWidth=3;rotation=45;" parent="1" vertex="1">
          <mxGeometry x="260" y="332.5" width="15" height="15" as="geometry" />
        </mxCell>
        <mxCell id="xuFwdp0xskdRImY5IUV7-18" value="" style="shape=link;html=1;rounded=0;" parent="1" edge="1">
          <mxGeometry relative="1" as="geometry">
            <mxPoint x="570" y="340" as="sourcePoint" />
            <mxPoint x="590" y="340" as="targetPoint" />
          </mxGeometry>
        </mxCell>
        <mxCell id="xuFwdp0xskdRImY5IUV7-20" value="" style="shape=link;html=1;rounded=0;" parent="1" edge="1">
          <mxGeometry relative="1" as="geometry">
            <mxPoint x="410" y="269.71" as="sourcePoint" />
            <mxPoint x="390" y="269.71" as="targetPoint" />
          </mxGeometry>
        </mxCell>
        <mxCell id="xuFwdp0xskdRImY5IUV7-22" value="OutputPose" style="rounded=0;whiteSpace=wrap;html=1;" parent="1" vertex="1">
          <mxGeometry x="600" y="320" width="80" height="40" as="geometry" />
        </mxCell>
        <mxCell id="xuFwdp0xskdRImY5IUV7-25" value="" style="shape=curlyBracket;whiteSpace=wrap;html=1;rounded=1;" parent="1" vertex="1">
          <mxGeometry x="310" y="310" width="20" height="60" as="geometry" />
        </mxCell>
        <mxCell id="xuFwdp0xskdRImY5IUV7-26" value="" style="shape=curlyBracket;whiteSpace=wrap;html=1;rounded=1;flipH=1;" parent="1" vertex="1">
          <mxGeometry x="550" y="310" width="20" height="60" as="geometry" />
        </mxCell>
        <mxCell id="xuFwdp0xskdRImY5IUV7-27" value="A1" style="ellipse;whiteSpace=wrap;html=1;aspect=fixed;" parent="1" vertex="1">
          <mxGeometry x="280" y="325" width="30" height="30" as="geometry" />
        </mxCell>
        <mxCell id="xuFwdp0xskdRImY5IUV7-28" value="A2" style="ellipse;whiteSpace=wrap;html=1;aspect=fixed;" parent="1" vertex="1">
          <mxGeometry x="435" y="325" width="30" height="30" as="geometry" />
        </mxCell>
        <mxCell id="xuFwdp0xskdRImY5IUV7-37" value="BaseLayer" style="rounded=1;whiteSpace=wrap;html=1;" parent="1" vertex="1">
          <mxGeometry x="110" y="500" width="80" height="40" as="geometry" />
        </mxCell>
        <mxCell id="xuFwdp0xskdRImY5IUV7-38" value="OverLayer" style="rounded=1;whiteSpace=wrap;html=1;" parent="1" vertex="1">
          <mxGeometry x="265" y="500" width="80" height="40" as="geometry" />
        </mxCell>
        <mxCell id="xuFwdp0xskdRImY5IUV7-39" value="AdditivePose" style="shape=hexagon;perimeter=hexagonPerimeter2;whiteSpace=wrap;html=1;fixedSize=1;" parent="1" vertex="1">
          <mxGeometry x="405" y="500" width="96" height="40" as="geometry" />
        </mxCell>
        <mxCell id="xuFwdp0xskdRImY5IUV7-40" value="" style="shape=umlDestroy;whiteSpace=wrap;html=1;strokeWidth=3;rotation=45;" parent="1" vertex="1">
          <mxGeometry x="351" y="512.5" width="15" height="15" as="geometry" />
        </mxCell>
        <mxCell id="xuFwdp0xskdRImY5IUV7-41" value="" style="shape=umlDestroy;whiteSpace=wrap;html=1;strokeWidth=3;rotation=45;" parent="1" vertex="1">
          <mxGeometry x="200" y="512.5" width="15" height="15" as="geometry" />
        </mxCell>
        <mxCell id="xuFwdp0xskdRImY5IUV7-42" value="" style="shape=curlyBracket;whiteSpace=wrap;html=1;rounded=1;" parent="1" vertex="1">
          <mxGeometry x="250" y="490" width="20" height="60" as="geometry" />
        </mxCell>
        <mxCell id="xuFwdp0xskdRImY5IUV7-43" value="" style="shape=curlyBracket;whiteSpace=wrap;html=1;rounded=1;flipH=1;" parent="1" vertex="1">
          <mxGeometry x="490" y="490" width="20" height="60" as="geometry" />
        </mxCell>
        <mxCell id="xuFwdp0xskdRImY5IUV7-44" value="&lt;p style=&quot;font-size: 11px&quot;&gt;&lt;font style=&quot;font-size: 11px ; line-height: 1&quot;&gt;A_&lt;br style=&quot;font-size: 11px&quot;&gt;&lt;/font&gt;&lt;font style=&quot;font-size: 11px ; line-height: 1&quot;&gt;ArmL1&lt;/font&gt;&lt;/p&gt;" style="ellipse;whiteSpace=wrap;html=1;aspect=fixed;fontSize=9;align=center;" parent="1" vertex="1">
          <mxGeometry x="220" y="505" width="30" height="30" as="geometry" />
        </mxCell>
        <mxCell id="xuFwdp0xskdRImY5IUV7-45" value="&lt;font style=&quot;font-size: 11px ; line-height: 1&quot;&gt;A_&lt;br&gt;&lt;/font&gt;&lt;font style=&quot;font-size: 11px ; line-height: 1&quot;&gt;ArmL2&lt;/font&gt;" style="ellipse;whiteSpace=wrap;html=1;aspect=fixed;" parent="1" vertex="1">
          <mxGeometry x="375" y="505" width="30" height="30" as="geometry" />
        </mxCell>
        <mxCell id="xuFwdp0xskdRImY5IUV7-46" value="BaseLayer" style="rounded=1;whiteSpace=wrap;html=1;" parent="1" vertex="1">
          <mxGeometry x="110" y="560" width="80" height="40" as="geometry" />
        </mxCell>
        <mxCell id="xuFwdp0xskdRImY5IUV7-47" value="OverLayer" style="rounded=1;whiteSpace=wrap;html=1;" parent="1" vertex="1">
          <mxGeometry x="265" y="560" width="80" height="40" as="geometry" />
        </mxCell>
        <mxCell id="xuFwdp0xskdRImY5IUV7-48" value="AdditivePose" style="shape=hexagon;perimeter=hexagonPerimeter2;whiteSpace=wrap;html=1;fixedSize=1;" parent="1" vertex="1">
          <mxGeometry x="405" y="560" width="96" height="40" as="geometry" />
        </mxCell>
        <mxCell id="xuFwdp0xskdRImY5IUV7-49" value="" style="shape=umlDestroy;whiteSpace=wrap;html=1;strokeWidth=3;rotation=45;" parent="1" vertex="1">
          <mxGeometry x="351" y="572.5" width="15" height="15" as="geometry" />
        </mxCell>
        <mxCell id="xuFwdp0xskdRImY5IUV7-50" value="" style="shape=umlDestroy;whiteSpace=wrap;html=1;strokeWidth=3;rotation=45;" parent="1" vertex="1">
          <mxGeometry x="200" y="572.5" width="15" height="15" as="geometry" />
        </mxCell>
        <mxCell id="xuFwdp0xskdRImY5IUV7-51" value="" style="shape=curlyBracket;whiteSpace=wrap;html=1;rounded=1;" parent="1" vertex="1">
          <mxGeometry x="250" y="550" width="20" height="60" as="geometry" />
        </mxCell>
        <mxCell id="xuFwdp0xskdRImY5IUV7-52" value="" style="shape=curlyBracket;whiteSpace=wrap;html=1;rounded=1;flipH=1;" parent="1" vertex="1">
          <mxGeometry x="490" y="550" width="20" height="60" as="geometry" />
        </mxCell>
        <mxCell id="xuFwdp0xskdRImY5IUV7-53" value="&lt;font style=&quot;font-size: 11px ; line-height: 1&quot;&gt;A_&lt;br&gt;&lt;/font&gt;&lt;font style=&quot;font-size: 11px ; line-height: 1&quot;&gt;ArmR1&lt;/font&gt;" style="ellipse;whiteSpace=wrap;html=1;aspect=fixed;" parent="1" vertex="1">
          <mxGeometry x="220" y="565" width="30" height="30" as="geometry" />
        </mxCell>
        <mxCell id="xuFwdp0xskdRImY5IUV7-54" value="&lt;font style=&quot;font-size: 11px ; line-height: 1&quot;&gt;A_&lt;br&gt;&lt;/font&gt;&lt;font style=&quot;font-size: 11px ; line-height: 1&quot;&gt;ArmR2&lt;/font&gt;" style="ellipse;whiteSpace=wrap;html=1;aspect=fixed;" parent="1" vertex="1">
          <mxGeometry x="375" y="565" width="30" height="30" as="geometry" />
        </mxCell>
        <mxCell id="5t36PK5r0zmvd9MRUijt-1" value="BaseLayer" style="rounded=1;whiteSpace=wrap;html=1;" parent="1" vertex="1">
          <mxGeometry x="110" y="620" width="80" height="40" as="geometry" />
        </mxCell>
        <mxCell id="5t36PK5r0zmvd9MRUijt-2" value="OverLayer" style="rounded=1;whiteSpace=wrap;html=1;" parent="1" vertex="1">
          <mxGeometry x="265" y="620" width="80" height="40" as="geometry" />
        </mxCell>
        <mxCell id="5t36PK5r0zmvd9MRUijt-3" value="AdditivePose" style="shape=hexagon;perimeter=hexagonPerimeter2;whiteSpace=wrap;html=1;fixedSize=1;" parent="1" vertex="1">
          <mxGeometry x="405" y="620" width="96" height="40" as="geometry" />
        </mxCell>
        <mxCell id="5t36PK5r0zmvd9MRUijt-4" value="" style="shape=umlDestroy;whiteSpace=wrap;html=1;strokeWidth=3;rotation=45;" parent="1" vertex="1">
          <mxGeometry x="351" y="632.5" width="15" height="15" as="geometry" />
        </mxCell>
        <mxCell id="5t36PK5r0zmvd9MRUijt-5" value="" style="shape=umlDestroy;whiteSpace=wrap;html=1;strokeWidth=3;rotation=45;" parent="1" vertex="1">
          <mxGeometry x="200" y="632.5" width="15" height="15" as="geometry" />
        </mxCell>
        <mxCell id="5t36PK5r0zmvd9MRUijt-6" value="" style="shape=curlyBracket;whiteSpace=wrap;html=1;rounded=1;" parent="1" vertex="1">
          <mxGeometry x="250" y="610" width="20" height="60" as="geometry" />
        </mxCell>
        <mxCell id="5t36PK5r0zmvd9MRUijt-7" value="" style="shape=curlyBracket;whiteSpace=wrap;html=1;rounded=1;flipH=1;" parent="1" vertex="1">
          <mxGeometry x="490" y="610" width="20" height="60" as="geometry" />
        </mxCell>
        <mxCell id="5t36PK5r0zmvd9MRUijt-8" value="&lt;p style=&quot;font-size: 11px&quot;&gt;&lt;font style=&quot;font-size: 11px ; line-height: 1&quot;&gt;A_&lt;br style=&quot;font-size: 11px&quot;&gt;&lt;/font&gt;&lt;font style=&quot;font-size: 11px ; line-height: 1&quot;&gt;ArmL1&lt;/font&gt;&lt;/p&gt;" style="ellipse;whiteSpace=wrap;html=1;aspect=fixed;fontSize=9;align=center;" parent="1" vertex="1">
          <mxGeometry x="220" y="625" width="30" height="30" as="geometry" />
        </mxCell>
        <mxCell id="5t36PK5r0zmvd9MRUijt-9" value="&lt;font style=&quot;font-size: 11px ; line-height: 1&quot;&gt;A_&lt;br&gt;&lt;/font&gt;&lt;font style=&quot;font-size: 11px ; line-height: 1&quot;&gt;ArmL2&lt;/font&gt;" style="ellipse;whiteSpace=wrap;html=1;aspect=fixed;" parent="1" vertex="1">
          <mxGeometry x="375" y="625" width="30" height="30" as="geometry" />
        </mxCell>
        <mxCell id="5t36PK5r0zmvd9MRUijt-10" value="BaseLayer" style="rounded=1;whiteSpace=wrap;html=1;" parent="1" vertex="1">
          <mxGeometry x="110" y="680" width="80" height="40" as="geometry" />
        </mxCell>
        <mxCell id="5t36PK5r0zmvd9MRUijt-11" value="OverLayer" style="rounded=1;whiteSpace=wrap;html=1;" parent="1" vertex="1">
          <mxGeometry x="265" y="680" width="80" height="40" as="geometry" />
        </mxCell>
        <mxCell id="5t36PK5r0zmvd9MRUijt-12" value="AdditivePose" style="shape=hexagon;perimeter=hexagonPerimeter2;whiteSpace=wrap;html=1;fixedSize=1;" parent="1" vertex="1">
          <mxGeometry x="405" y="680" width="96" height="40" as="geometry" />
        </mxCell>
        <mxCell id="5t36PK5r0zmvd9MRUijt-13" value="" style="shape=umlDestroy;whiteSpace=wrap;html=1;strokeWidth=3;rotation=45;" parent="1" vertex="1">
          <mxGeometry x="351" y="692.5" width="15" height="15" as="geometry" />
        </mxCell>
        <mxCell id="5t36PK5r0zmvd9MRUijt-14" value="" style="shape=umlDestroy;whiteSpace=wrap;html=1;strokeWidth=3;rotation=45;" parent="1" vertex="1">
          <mxGeometry x="200" y="692.5" width="15" height="15" as="geometry" />
        </mxCell>
        <mxCell id="5t36PK5r0zmvd9MRUijt-15" value="" style="shape=curlyBracket;whiteSpace=wrap;html=1;rounded=1;" parent="1" vertex="1">
          <mxGeometry x="250" y="670" width="20" height="60" as="geometry" />
        </mxCell>
        <mxCell id="5t36PK5r0zmvd9MRUijt-16" value="" style="shape=curlyBracket;whiteSpace=wrap;html=1;rounded=1;flipH=1;" parent="1" vertex="1">
          <mxGeometry x="490" y="670" width="20" height="60" as="geometry" />
        </mxCell>
        <mxCell id="5t36PK5r0zmvd9MRUijt-17" value="&lt;font style=&quot;font-size: 11px ; line-height: 1&quot;&gt;A_&lt;br&gt;&lt;/font&gt;&lt;font style=&quot;font-size: 11px ; line-height: 1&quot;&gt;ArmR1&lt;/font&gt;" style="ellipse;whiteSpace=wrap;html=1;aspect=fixed;" parent="1" vertex="1">
          <mxGeometry x="220" y="685" width="30" height="30" as="geometry" />
        </mxCell>
        <mxCell id="5t36PK5r0zmvd9MRUijt-18" value="&lt;font style=&quot;font-size: 11px ; line-height: 1&quot;&gt;A_&lt;br&gt;&lt;/font&gt;&lt;font style=&quot;font-size: 11px ; line-height: 1&quot;&gt;ArmR2&lt;/font&gt;" style="ellipse;whiteSpace=wrap;html=1;aspect=fixed;" parent="1" vertex="1">
          <mxGeometry x="375" y="685" width="30" height="30" as="geometry" />
        </mxCell>
        <mxCell id="IGxMuxNKU_5qsN4qUuhu-4" style="edgeStyle=orthogonalEdgeStyle;rounded=0;orthogonalLoop=1;jettySize=auto;html=1;exitX=1;exitY=0.5;exitDx=0;exitDy=0;entryX=0;entryY=0.5;entryDx=0;entryDy=0;fontSize=20;" edge="1" parent="1" source="IGxMuxNKU_5qsN4qUuhu-1" target="IGxMuxNKU_5qsN4qUuhu-2">
          <mxGeometry relative="1" as="geometry" />
        </mxCell>
        <mxCell id="IGxMuxNKU_5qsN4qUuhu-1" value="&lt;font style=&quot;font-size: 20px&quot;&gt;起跳&lt;/font&gt;" style="rounded=0;whiteSpace=wrap;html=1;" vertex="1" parent="1">
          <mxGeometry x="143" y="1248" width="120" height="60" as="geometry" />
        </mxCell>
        <mxCell id="IGxMuxNKU_5qsN4qUuhu-5" style="edgeStyle=orthogonalEdgeStyle;rounded=0;orthogonalLoop=1;jettySize=auto;html=1;exitX=1;exitY=0.5;exitDx=0;exitDy=0;entryX=0;entryY=0.5;entryDx=0;entryDy=0;fontSize=20;" edge="1" parent="1" source="IGxMuxNKU_5qsN4qUuhu-2" target="IGxMuxNKU_5qsN4qUuhu-3">
          <mxGeometry relative="1" as="geometry" />
        </mxCell>
        <mxCell id="IGxMuxNKU_5qsN4qUuhu-2" value="&lt;font style=&quot;font-size: 20px&quot;&gt;滞空&lt;/font&gt;" style="rounded=0;whiteSpace=wrap;html=1;" vertex="1" parent="1">
          <mxGeometry x="387" y="1248" width="120" height="60" as="geometry" />
        </mxCell>
        <mxCell id="IGxMuxNKU_5qsN4qUuhu-3" value="&lt;span style=&quot;font-size: 20px&quot;&gt;落地&lt;/span&gt;" style="rounded=0;whiteSpace=wrap;html=1;" vertex="1" parent="1">
          <mxGeometry x="633" y="1248" width="120" height="60" as="geometry" />
        </mxCell>
        <mxCell id="IGxMuxNKU_5qsN4qUuhu-6" value="Jump" style="rhombus;whiteSpace=wrap;html=1;fontSize=20;fillColor=#66B2FF;" vertex="1" parent="1">
          <mxGeometry x="273" y="1318" width="80" height="80" as="geometry" />
        </mxCell>
        <mxCell id="IGxMuxNKU_5qsN4qUuhu-7" value="Land" style="rhombus;whiteSpace=wrap;html=1;fontSize=20;fillColor=#66B2FF;" vertex="1" parent="1">
          <mxGeometry x="536" y="1318" width="80" height="80" as="geometry" />
        </mxCell>
        <mxCell id="IGxMuxNKU_5qsN4qUuhu-8" value="Grounded" style="swimlane;fontSize=20;fillColor=#66B2FF;" vertex="1" parent="1">
          <mxGeometry x="73" y="1442" width="190" height="100" as="geometry">
            <mxRectangle x="10" y="1340" width="130" height="30" as="alternateBounds" />
          </mxGeometry>
        </mxCell>
        <mxCell id="IGxMuxNKU_5qsN4qUuhu-9" value="Gait" style="shape=hexagon;perimeter=hexagonPerimeter2;whiteSpace=wrap;html=1;fixedSize=1;fontSize=20;" vertex="1" parent="IGxMuxNKU_5qsN4qUuhu-8">
          <mxGeometry y="30" width="90" height="30" as="geometry" />
        </mxCell>
        <mxCell id="IGxMuxNKU_5qsN4qUuhu-12" value="Velocity" style="shape=hexagon;perimeter=hexagonPerimeter2;whiteSpace=wrap;html=1;fixedSize=1;fontSize=20;" vertex="1" parent="IGxMuxNKU_5qsN4qUuhu-8">
          <mxGeometry y="70" width="100" height="30" as="geometry" />
        </mxCell>
        <mxCell id="IGxMuxNKU_5qsN4qUuhu-13" value="Overlay" style="shape=hexagon;perimeter=hexagonPerimeter2;whiteSpace=wrap;html=1;fixedSize=1;fontSize=20;" vertex="1" parent="IGxMuxNKU_5qsN4qUuhu-8">
          <mxGeometry x="100" y="30" width="90" height="30" as="geometry" />
        </mxCell>
        <mxCell id="IGxMuxNKU_5qsN4qUuhu-14" value="InAir" style="swimlane;fontSize=20;fillColor=#66B2FF;" vertex="1" parent="1">
          <mxGeometry x="356.5" y="1442" width="190" height="100" as="geometry">
            <mxRectangle x="10" y="1340" width="130" height="30" as="alternateBounds" />
          </mxGeometry>
        </mxCell>
        <mxCell id="IGxMuxNKU_5qsN4qUuhu-15" value="Input" style="shape=hexagon;perimeter=hexagonPerimeter2;whiteSpace=wrap;html=1;fixedSize=1;fontSize=20;" vertex="1" parent="IGxMuxNKU_5qsN4qUuhu-14">
          <mxGeometry y="30" width="90" height="30" as="geometry" />
        </mxCell>
        <mxCell id="IGxMuxNKU_5qsN4qUuhu-16" value="Velocity" style="shape=hexagon;perimeter=hexagonPerimeter2;whiteSpace=wrap;html=1;fixedSize=1;fontSize=20;" vertex="1" parent="IGxMuxNKU_5qsN4qUuhu-14">
          <mxGeometry y="70" width="100" height="30" as="geometry" />
        </mxCell>
        <mxCell id="IGxMuxNKU_5qsN4qUuhu-17" value="DoubleJump" style="shape=hexagon;perimeter=hexagonPerimeter2;whiteSpace=wrap;html=1;fixedSize=1;fontSize=20;" vertex="1" parent="IGxMuxNKU_5qsN4qUuhu-14">
          <mxGeometry x="100" y="30" width="90" height="30" as="geometry" />
        </mxCell>
        <mxCell id="IGxMuxNKU_5qsN4qUuhu-18" value="Grounded" style="swimlane;fontSize=20;fillColor=#66B2FF;" vertex="1" parent="1">
          <mxGeometry x="608" y="1442" width="190" height="100" as="geometry">
            <mxRectangle x="10" y="1340" width="130" height="30" as="alternateBounds" />
          </mxGeometry>
        </mxCell>
        <mxCell id="IGxMuxNKU_5qsN4qUuhu-19" value="Gait" style="shape=hexagon;perimeter=hexagonPerimeter2;whiteSpace=wrap;html=1;fixedSize=1;fontSize=20;" vertex="1" parent="IGxMuxNKU_5qsN4qUuhu-18">
          <mxGeometry y="30" width="90" height="30" as="geometry" />
        </mxCell>
        <mxCell id="IGxMuxNKU_5qsN4qUuhu-20" value="Velocity" style="shape=hexagon;perimeter=hexagonPerimeter2;whiteSpace=wrap;html=1;fixedSize=1;fontSize=20;" vertex="1" parent="IGxMuxNKU_5qsN4qUuhu-18">
          <mxGeometry y="70" width="100" height="30" as="geometry" />
        </mxCell>
        <mxCell id="IGxMuxNKU_5qsN4qUuhu-21" value="Overlay" style="shape=hexagon;perimeter=hexagonPerimeter2;whiteSpace=wrap;html=1;fixedSize=1;fontSize=20;" vertex="1" parent="IGxMuxNKU_5qsN4qUuhu-18">
          <mxGeometry x="100" y="30" width="90" height="30" as="geometry" />
        </mxCell>
        <mxCell id="IGxMuxNKU_5qsN4qUuhu-22" value="" style="shape=flexArrow;endArrow=classic;html=1;rounded=0;fontSize=20;fillColor=#B266FF;" edge="1" parent="1">
          <mxGeometry width="50" height="50" relative="1" as="geometry">
            <mxPoint x="313" y="1532" as="sourcePoint" />
            <mxPoint x="313" y="1652" as="targetPoint" />
          </mxGeometry>
        </mxCell>
        <mxCell id="IGxMuxNKU_5qsN4qUuhu-23" value="决议" style="edgeLabel;html=1;align=center;verticalAlign=middle;resizable=0;points=[];fontSize=20;" vertex="1" connectable="0" parent="IGxMuxNKU_5qsN4qUuhu-22">
          <mxGeometry x="-0.2833" y="1" relative="1" as="geometry">
            <mxPoint as="offset" />
          </mxGeometry>
        </mxCell>
        <mxCell id="IGxMuxNKU_5qsN4qUuhu-24" value="" style="shape=flexArrow;endArrow=classic;html=1;rounded=0;fontSize=20;fillColor=#B266FF;" edge="1" parent="1">
          <mxGeometry width="50" height="50" relative="1" as="geometry">
            <mxPoint x="573" y="1532" as="sourcePoint" />
            <mxPoint x="573" y="1652" as="targetPoint" />
          </mxGeometry>
        </mxCell>
        <mxCell id="IGxMuxNKU_5qsN4qUuhu-25" value="决议" style="edgeLabel;html=1;align=center;verticalAlign=middle;resizable=0;points=[];fontSize=20;" vertex="1" connectable="0" parent="IGxMuxNKU_5qsN4qUuhu-24">
          <mxGeometry x="-0.2833" y="1" relative="1" as="geometry">
            <mxPoint as="offset" />
          </mxGeometry>
        </mxCell>
        <mxCell id="IGxMuxNKU_5qsN4qUuhu-26" value="&lt;font style=&quot;font-size: 15px&quot;&gt;JumpMode&lt;/font&gt;" style="rounded=0;whiteSpace=wrap;html=1;fillColor=#B266FF;" vertex="1" parent="1">
          <mxGeometry x="253" y="1672" width="120" height="60" as="geometry" />
        </mxCell>
        <mxCell id="IGxMuxNKU_5qsN4qUuhu-27" value="&lt;font style=&quot;font-size: 15px&quot;&gt;LandMode&lt;/font&gt;" style="rounded=0;whiteSpace=wrap;html=1;fillColor=#B266FF;" vertex="1" parent="1">
          <mxGeometry x="513" y="1672" width="120" height="60" as="geometry" />
        </mxCell>
        <mxCell id="IGxMuxNKU_5qsN4qUuhu-28" value="" style="shape=offPageConnector;whiteSpace=wrap;html=1;fontSize=15;" vertex="1" parent="1">
          <mxGeometry x="293" y="1742" width="40" height="40" as="geometry" />
        </mxCell>
        <mxCell id="IGxMuxNKU_5qsN4qUuhu-29" value="" style="shape=offPageConnector;whiteSpace=wrap;html=1;fontSize=15;" vertex="1" parent="1">
          <mxGeometry x="556" y="1742" width="40" height="40" as="geometry" />
        </mxCell>
        <mxCell id="IGxMuxNKU_5qsN4qUuhu-30" value="JumpAnimation" style="rounded=1;whiteSpace=wrap;html=1;fontSize=15;fillColor=#FF742E;" vertex="1" parent="1">
          <mxGeometry x="253" y="1792" width="120" height="60" as="geometry" />
        </mxCell>
        <mxCell id="IGxMuxNKU_5qsN4qUuhu-31" value="LAnimation" style="rounded=1;whiteSpace=wrap;html=1;fontSize=15;fillColor=#FF742E;" vertex="1" parent="1">
          <mxGeometry x="513" y="1792" width="120" height="60" as="geometry" />
        </mxCell>
        <mxCell id="IGxMuxNKU_5qsN4qUuhu-32" value="" style="rhombus;whiteSpace=wrap;html=1;fontSize=15;fillColor=#66B2FF;" vertex="1" parent="1">
          <mxGeometry x="-97" y="1291" width="31" height="31" as="geometry" />
        </mxCell>
        <mxCell id="IGxMuxNKU_5qsN4qUuhu-33" value="逻辑层通知" style="text;html=1;strokeColor=none;fillColor=none;align=center;verticalAlign=middle;whiteSpace=wrap;rounded=0;fontSize=15;" vertex="1" parent="1">
          <mxGeometry x="-69" y="1292" width="101" height="30" as="geometry" />
        </mxCell>
        <mxCell id="IGxMuxNKU_5qsN4qUuhu-34" value="" style="rounded=0;whiteSpace=wrap;html=1;fontSize=15;fillColor=#66B2FF;" vertex="1" parent="1">
          <mxGeometry x="-97" y="1344" width="36" height="18" as="geometry" />
        </mxCell>
        <mxCell id="IGxMuxNKU_5qsN4qUuhu-35" value="逻辑层数据" style="text;html=1;strokeColor=none;fillColor=none;align=center;verticalAlign=middle;whiteSpace=wrap;rounded=0;fontSize=15;" vertex="1" parent="1">
          <mxGeometry x="-66" y="1338" width="101" height="30" as="geometry" />
        </mxCell>
        <mxCell id="IGxMuxNKU_5qsN4qUuhu-37" value="" style="rounded=0;whiteSpace=wrap;html=1;fontSize=15;fillColor=#B266FF;" vertex="1" parent="1">
          <mxGeometry x="-97" y="1385" width="36" height="18" as="geometry" />
        </mxCell>
        <mxCell id="IGxMuxNKU_5qsN4qUuhu-38" value="中间层" style="text;html=1;strokeColor=none;fillColor=none;align=center;verticalAlign=middle;whiteSpace=wrap;rounded=0;fontSize=15;" vertex="1" parent="1">
          <mxGeometry x="-69" y="1379" width="101" height="30" as="geometry" />
        </mxCell>
        <mxCell id="IGxMuxNKU_5qsN4qUuhu-39" value="" style="rounded=1;whiteSpace=wrap;html=1;fontSize=15;fillColor=#FF742E;" vertex="1" parent="1">
          <mxGeometry x="-97" y="1425" width="35" height="20" as="geometry" />
        </mxCell>
        <mxCell id="IGxMuxNKU_5qsN4qUuhu-40" value="表现层" style="text;html=1;strokeColor=none;fillColor=none;align=center;verticalAlign=middle;whiteSpace=wrap;rounded=0;fontSize=15;" vertex="1" parent="1">
          <mxGeometry x="-69" y="1420" width="101" height="30" as="geometry" />
        </mxCell>
      </root>
    </mxGraphModel>
  </diagram>
</mxfile>
